<svg width="20" height="21" viewBox="0 0 20 21" fill="none" xmlns="http://www.w3.org/2000/svg">
<path d="M18.7511 10.5867C18.7511 9.86729 18.6915 9.34229 18.5626 8.79785H10.1797V12.045H15.1003C15.0011 12.852 14.4654 14.0673 13.2749 14.8839L13.2582 14.9926L15.9087 17.0049L16.0924 17.0229C17.7788 15.4964 18.7511 13.2506 18.7511 10.5867Z" fill="#4285F4"/>
<path d="M10.1788 19.1426C12.5895 19.1426 14.6133 18.3647 16.0915 17.0231L13.274 14.8841C12.5201 15.3994 11.5081 15.7591 10.1788 15.7591C7.81773 15.7591 5.81379 14.2328 5.09944 12.123L4.99473 12.1318L2.23868 14.2221L2.20264 14.3203C3.67087 17.1786 6.68674 19.1426 10.1788 19.1426Z" fill="#34A853"/>
<path d="M5.10014 12.1233C4.91165 11.5789 4.80257 10.9955 4.80257 10.3927C4.80257 9.78992 4.91165 9.20661 5.09022 8.66218L5.08523 8.54622L2.29464 6.42236L2.20333 6.46492C1.5982 7.65105 1.25098 8.98302 1.25098 10.3927C1.25098 11.8025 1.5982 13.1344 2.20333 14.3205L5.10014 12.1233Z" fill="#FBBC05"/>
<path d="M10.1789 5.02589C11.8554 5.02589 12.9864 5.73561 13.6312 6.3287L16.1511 3.91758C14.6035 2.50786 12.5895 1.64258 10.1789 1.64258C6.68676 1.64258 3.67088 3.60645 2.20264 6.46476L5.08953 8.66201C5.81381 6.5523 7.81776 5.02589 10.1789 5.02589Z" fill="#EB4335"/>
</svg>
