<svg width="168" height="171" viewBox="0 0 168 171" fill="none" xmlns="http://www.w3.org/2000/svg">
<g id="Layer_1" clip-path="url(#clip0_2711_17833)">
<g id="15">
<path id="Vector" d="M143.647 32.4379H26.5046C19.6367 32.4379 14.0591 37.7576 14.0591 44.3041V50.4641H151.375V39.7841C151.375 35.731 147.907 32.4375 143.647 32.4375L143.647 32.4379ZM31.4641 43.9577C30.0126 44.1844 28.6552 43.2244 28.4131 41.8111C28.1714 40.3846 29.1523 39.0512 30.6038 38.8245C32.0417 38.5848 33.4127 39.5443 33.6412 40.9712C33.8829 42.3845 32.902 43.7179 31.4641 43.9577ZM40.0521 43.9577C38.6142 44.1844 37.2433 43.2244 37.0148 41.8111C36.7731 40.3846 37.754 39.0512 39.1919 38.8245C40.6434 38.5848 42.0007 39.5443 42.2428 40.9712C42.4713 42.3845 41.5036 43.7179 40.0521 43.9577ZM48.4654 44.011C47.0139 44.2508 45.6566 43.2908 45.4145 41.8644C45.186 40.451 46.1673 39.1176 47.6052 38.8778C49.043 38.6512 50.414 39.6111 50.6425 41.0245C50.8842 42.4509 49.9033 43.7843 48.4654 44.011Z" fill="#528BFF"/>
<path id="Vector_2" d="M34.6492 131.969C34.205 131.969 34.2046 131.302 34.6492 131.302C142.907 131.461 136.752 130.972 136.752 131.635C136.752 132.299 143 131.81 34.6492 131.969Z" fill="currentColor"/>
<path id="Vector_3" d="M150.751 122.124C151.236 119.937 150.921 124.111 151.012 39.7973C151.012 35.9303 147.696 32.7843 143.621 32.7843C40.0668 32.8742 47.5465 33.2031 29.4404 32.7843C25.793 32.7127 20.581 32.9899 17.4939 36.3936C14.621 39.5718 14.3953 44.0055 14.4097 48.6499C14.4702 65.6171 14.6366 85.3326 15.8468 104.602C15.8721 105.044 15.203 105.081 15.175 104.644C13.9648 85.3565 13.798 65.629 13.7379 48.6527C13.7234 43.8731 13.9612 39.3038 16.9941 35.9486C20.2663 32.3405 25.6711 32.0347 29.456 32.1178C43.6337 32.4459 58.0892 32.3365 72.0672 32.2272C97.5287 32.0327 88.5859 32.1655 143.62 32.1178C148.067 32.1178 151.684 35.5629 151.684 39.7973C151.588 123.867 151.928 119.921 151.407 122.267C151.313 122.696 150.656 122.557 150.751 122.124Z" fill="currentColor"/>
<path id="Vector_4" d="M34.9464 66.2824C60.3811 73.5491 85.7332 82.4824 111.026 92.6386C113.325 93.4348 114.489 95.9731 113.585 98.2164L110.532 105.787C109.682 107.896 107.308 108.966 105.148 108.214L29.091 81.732C26.7905 80.9311 25.6304 78.386 26.5432 76.1431L29.5741 68.6978C30.4283 66.5997 32.793 65.5367 34.9464 66.2824Z" fill="#5FE9D0"/>
<path id="Vector_5" d="M48.4381 140.716C48.2569 140.716 48.1086 140.574 48.1021 140.393L47.5914 124.593C47.5862 124.409 47.7305 124.255 47.9169 124.249C48.0717 124.25 48.2569 124.387 48.2633 124.572L48.774 140.372C48.7792 140.556 48.6349 140.71 48.4485 140.716H48.4381Z" fill="currentColor"/>
<path id="Vector_6" d="M102.077 140.716C101.893 140.716 101.743 140.57 101.741 140.387L101.54 124.586C101.537 124.403 101.686 124.252 101.872 124.249H101.876C102.06 124.249 102.21 124.396 102.212 124.578L102.413 140.379C102.416 140.562 102.267 140.713 102.081 140.716H102.077Z" fill="currentColor"/>
<g id="Group">
<path id="Vector_7" d="M50.0741 137.963H46.9743C45.7294 137.963 44.7202 138.964 44.7202 140.199V140.24C44.7202 141.474 45.7294 142.476 46.9743 142.476H50.0741C51.319 142.476 52.3282 141.474 52.3282 140.24V140.199C52.3282 138.964 51.319 137.963 50.0741 137.963Z" fill="currentColor"/>
<path id="Vector_8" d="M50.0748 142.808H46.9746C45.5467 142.808 44.3838 141.656 44.3838 140.24C44.3838 138.823 45.5467 137.629 46.9746 137.629H50.0748C51.5027 137.629 52.6644 138.782 52.6644 140.199C52.6644 141.615 51.5027 142.808 50.0748 142.808V142.808ZM46.9746 138.295C45.9167 138.295 45.0556 139.149 45.0556 140.199C45.0556 141.248 45.9167 142.142 46.9746 142.142H50.0748C51.1327 142.142 51.9925 141.289 51.9925 140.239C51.9925 139.19 51.1327 138.295 50.0748 138.295H46.9746Z" fill="currentColor"/>
</g>
<g id="Group_2">
<path id="Vector_9" d="M103.233 138.128H100.133C98.8881 138.128 97.8789 139.129 97.8789 140.364V140.405C97.8789 141.64 98.8881 142.641 100.133 142.641H103.233C104.478 142.641 105.487 141.64 105.487 140.405V140.364C105.487 139.129 104.478 138.128 103.233 138.128Z" fill="currentColor"/>
<path id="Vector_10" d="M103.233 142.974H100.132C98.7037 142.974 97.542 141.821 97.542 140.405C97.542 138.988 98.7037 137.794 100.132 137.794H103.233C104.661 137.794 105.823 138.947 105.823 140.363C105.823 141.78 104.661 142.974 103.233 142.974ZM100.132 138.461C99.0741 138.461 98.2142 139.314 98.2142 140.363C98.2142 141.413 99.0741 142.307 100.132 142.307H103.233C104.291 142.307 105.151 141.454 105.151 140.405C105.151 139.355 104.291 138.461 103.233 138.461H100.132Z" fill="currentColor"/>
</g>
<path id="Vector_11" d="M106.802 113.508C83.4529 112.312 61.5839 112.047 42.4624 113.508C41.3163 113.508 40.3867 114.43 40.3867 115.567V122.688C40.3867 123.826 41.3163 124.747 42.4624 124.747H106.802C107.948 124.747 108.877 123.826 108.877 122.688V115.567C108.877 114.43 107.948 113.508 106.802 113.508V113.508ZM52.1007 124.114C51.6505 124.114 51.9616 124.107 47.9822 113.608C47.9181 113.435 48.0071 113.243 48.1819 113.181C48.355 113.115 48.5495 113.206 48.6124 113.379L52.4162 123.666C52.4979 123.887 52.3316 124.114 52.1011 124.114H52.1007ZM66.3874 123.905C65.6799 122.153 62.1467 113.396 62.0589 113.042C61.9523 112.628 62.5912 112.437 62.7099 112.878C62.8137 113.228 65.3387 119.513 67.0123 123.657C67.1767 124.068 66.5521 124.313 66.3874 123.905ZM81.1924 123.044C80.7723 123.044 81.0813 123.083 76.5737 113.095C76.3957 112.692 77.0074 112.421 77.1878 112.827L81.4994 122.576C81.5977 122.799 81.4325 123.044 81.1924 123.044ZM95.8186 122.12C95.4218 122.12 95.7036 122.136 91.3863 113.641C91.1907 113.247 91.7916 112.95 91.99 113.346L96.1205 121.639C96.2287 121.857 96.0696 122.12 95.8186 122.12Z" fill="#528BFF"/>
<g id="Group_3">
<path id="Vector_12" d="M33.7047 77.7951C33.6694 77.7163 33.6694 77.6233 33.7087 77.5151C36.4754 70.0738 36.2526 70.0631 36.7588 70.2476C36.9653 70.322 37.0443 70.4751 36.9621 70.699L35.7427 74.0168L35.6128 73.9698C36.7601 72.5358 39.267 73.3049 39.3901 74.871C39.4178 75.2225 39.348 75.621 39.1853 76.0664C38.0176 79.1567 38.1061 79.2104 37.8949 79.3098C37.7213 79.3874 37.476 79.28 37.4066 79.1328C37.3112 78.9296 37.4074 78.9495 38.5026 75.8815C38.8562 74.9199 38.7227 74.251 37.7414 73.8983C36.7372 73.5336 35.7791 73.9201 35.3671 75.04L34.3709 77.7549C34.2158 78.1729 33.7869 77.9693 33.7043 77.7951H33.7047Z" fill="currentColor"/>
<path id="Vector_13" d="M40.5587 78.3192L41.6414 75.3681C40.901 75.0797 40.7371 75.0909 40.6373 74.9254C40.5595 74.7958 40.6184 74.5934 40.7792 74.5373C40.964 74.4729 41.0935 74.5914 41.8359 74.8399C42.3145 73.6091 42.3121 73.355 42.5105 73.2715C42.7218 73.184 43.1371 73.3411 42.9935 73.7324L42.4989 75.0785C43.8005 75.5709 44.0759 75.5888 44.1669 75.761C44.237 75.8997 44.1536 76.0938 44.025 76.1491C43.8478 76.2235 43.6894 76.0855 42.3045 75.6067C41.453 78.1176 40.9243 78.8577 41.156 79.5715C41.3127 80.0483 41.9721 80.3151 42.3137 80.3255C42.4832 80.3294 42.6312 80.3446 42.6865 80.4786C42.7426 80.6146 42.6211 80.9522 42.3951 80.9224C42.3033 80.9216 42.1862 80.9093 42.0395 80.8854C40.774 80.6722 40.03 79.7536 40.5591 78.3192H40.5587Z" fill="currentColor"/>
<path id="Vector_14" d="M43.9621 80.6766C43.8827 79.9103 44.2756 79.3623 45.2144 76.6585L44.4123 76.369C43.9902 76.2171 44.1742 75.6882 44.6067 75.8409L45.4088 76.1312C45.8874 74.9004 45.885 74.6471 46.0835 74.5636C46.2775 74.4816 46.712 74.6264 46.5665 75.0237L46.0718 76.3706C47.3738 76.8621 47.6488 76.8804 47.7398 77.0522C47.8104 77.1922 47.725 77.387 47.5979 77.4403C47.4207 77.5147 47.2624 77.3767 45.8774 76.8979C45.0264 79.4088 44.4965 80.1493 44.729 80.8627C44.8857 81.3395 45.5439 81.6064 45.8866 81.6167C46.0598 81.6207 46.2037 81.635 46.2594 81.7702C46.3188 81.9126 46.1877 82.2442 45.968 82.2136C45.8762 82.2128 45.7592 82.2013 45.6125 82.1766C44.8079 82.041 44.0403 81.5268 43.9625 80.6766H43.9621Z" fill="currentColor"/>
<path id="Vector_15" d="M46.2848 84.2565C48.821 77.4443 48.6747 77.5115 48.9004 77.4049C49.0988 77.3131 49.5305 77.4622 49.3806 77.871L48.9765 78.9694L48.8819 78.8628C50.2372 76.9969 53.924 78.3792 52.7025 81.7197C51.4607 85.0936 47.7627 83.7474 47.9171 81.491L48.0353 81.5332L46.9474 84.4955C46.9081 84.6036 46.8488 84.6756 46.7702 84.7122C46.5585 84.81 46.1445 84.6382 46.2848 84.2565ZM52.0295 81.4759C52.5763 79.9882 52.0247 79.0469 51.057 78.6974C49.076 77.9768 47.9263 80.683 48.4045 81.9722C48.8948 83.3036 51.1476 83.8707 52.0295 81.4763V81.4759Z" fill="currentColor"/>
<path id="Vector_16" d="M53.903 85.0686C53.6677 84.9047 53.0788 84.3631 53.084 84.1205C53.084 84.0028 53.1498 83.8835 53.2624 83.8314C53.6745 83.6369 53.6677 84.5206 55.0462 85.0188C55.7341 85.267 56.4913 85.2758 56.7407 84.5937C57.273 83.1371 53.6593 83.0492 54.4057 81.0047C54.6366 80.3812 55.1485 80.0372 55.8363 80.0034C57.2117 79.9366 58.484 81.0676 58.464 81.5567C58.454 81.8045 58.1305 81.9743 57.9296 81.6923C57.2422 80.6428 55.486 80.0821 55.0643 81.2183C54.5227 82.7048 58.1305 82.8285 57.4069 84.7858C57.2389 85.2455 56.9227 85.5438 56.4569 85.681C55.6399 85.9232 54.6021 85.5581 53.9026 85.0682L53.903 85.0686Z" fill="currentColor"/>
<path id="Vector_17" d="M58.3403 86.5996C58.2196 86.3447 58.3379 86.0094 58.6017 85.8882C58.9684 85.7156 59.5148 86.0385 59.3276 86.5543C59.2751 86.6974 59.1873 86.7996 59.0627 86.8601C58.8185 86.9774 58.4622 86.8656 58.3407 86.5996H58.3403ZM59.9189 82.2964C59.791 82.0053 59.9474 81.6891 60.1827 81.5797C60.4496 81.4557 60.7956 81.5972 60.9046 81.8406C61.0096 82.0753 60.9102 82.4216 60.6408 82.5568C60.515 82.6205 60.0408 82.5712 59.9189 82.2964Z" fill="currentColor"/>
<path id="Vector_18" d="M60.5924 88.1692C60.3395 88.2384 60.0633 87.9767 60.2761 87.6892C66.2053 80.1553 65.8678 80.4977 66.0185 80.4555C66.2514 80.3919 66.5528 80.6488 66.3348 80.9355C60.4205 88.4504 60.764 88.1215 60.5924 88.1692Z" fill="currentColor"/>
<path id="Vector_19" d="M63.2347 88.9423C62.997 89.2632 62.4827 88.9478 62.7517 88.5844C68.5589 81.2055 68.4487 81.0321 68.8311 81.4724C69.0905 81.7809 68.7702 81.7396 63.2347 88.9423Z" fill="currentColor"/>
</g>
<path id="Vector_20" d="M72.1744 78.0738L81.9366 50.8415C87.744 34.281 90.7264 25.9925 90.8838 25.9761C91.1444 25.9522 91.3316 26.2127 91.2265 26.4449C91.0285 26.9591 85.487 42.7452 82.5707 51.063L72.807 78.2981C72.6595 78.7133 72.0233 78.489 72.1744 78.0742V78.0738Z" fill="currentColor"/>
<path id="Vector_21" d="M148.766 122.311C132.98 92.6064 118.299 59.6173 103.885 21.4621C103.732 21.0489 104.356 20.8146 104.516 21.2278C118.919 59.3572 133.587 92.3213 149.36 122.002C149.568 122.392 148.97 122.702 148.766 122.311Z" fill="currentColor"/>
<path id="Vector_22" d="M134.43 162.095C137.43 159.094 141.658 153.104 146.295 152.359C147.699 152.146 155.79 153.37 156.809 151.394C157.09 150.85 156.779 150.023 155.886 148.94C155.693 148.707 155.886 148.35 156.212 148.402C162.574 149.669 160.359 142.799 156.868 140.625C156.548 140.426 156.753 139.926 157.129 140.019C159.801 140.688 162.921 139.936 163.813 138.403C164.572 137.103 163.534 135.603 162.53 134.574C162.278 134.316 162.562 133.898 162.902 134.035C163.173 134.023 163.887 133.791 164.022 133.755C164.837 133.546 165.759 133.133 166.211 132.43C167.081 131.052 165.819 128.806 164.844 127.546C164.512 127.119 163.964 126.728 163.481 126.383C162.538 125.713 161.582 124.992 160.481 124.603C154.436 122.365 147.671 121.024 143.131 125.525C135.932 132.671 129.336 139.148 121.265 145.024C120.91 145.286 120.509 144.749 120.867 144.488C128.92 138.623 135.492 132.165 142.656 125.054C147.423 120.327 154.414 121.647 160.712 123.977C161.861 124.382 162.884 125.129 163.874 125.843C164.394 126.214 164.983 126.634 165.377 127.138C167.82 130.302 168.092 133.412 164.2 134.398C164.032 134.448 163.716 134.545 163.467 134.606C165.092 136.512 164.889 137.892 164.395 138.737C163.425 140.401 160.71 141.099 158.3 140.887C160.279 142.725 161.43 145.693 160.695 147.522C160.387 148.292 159.481 149.453 156.906 149.184C157.59 150.198 157.754 151.026 157.407 151.698C156.113 154.211 147.824 152.797 146.399 153.018C143.031 153.558 139.741 157.238 137.098 160.194C136.319 161.063 135.584 161.885 134.907 162.563C134.598 162.877 134.115 162.409 134.429 162.095H134.43Z" fill="currentColor"/>
<path id="Vector_23" d="M162.44 134.551C159.601 131.697 155.335 130.174 151.32 130.601C151.14 130.63 150.97 130.487 150.95 130.304C150.932 130.121 151.066 129.957 151.25 129.937C155.469 129.502 159.939 131.087 162.918 134.082C163.232 134.396 162.75 134.864 162.44 134.551Z" fill="currentColor"/>
<path id="Vector_24" d="M155.931 149.074C153.606 147.629 150.932 146.799 148.194 146.675C147.75 146.654 147.779 145.985 148.226 146.009C151.078 146.139 153.867 147.002 156.288 148.509C156.664 148.742 156.31 149.306 155.931 149.074Z" fill="currentColor"/>
<path id="Vector_25" d="M157.106 140.683C154.398 139.349 151.268 138.928 148.299 139.5C148.106 139.543 147.939 139.416 147.905 139.237C147.87 139.056 147.988 138.881 148.17 138.846C151.283 138.249 154.563 138.686 157.405 140.087C157.572 140.169 157.638 140.368 157.556 140.534C157.478 140.691 157.282 140.768 157.106 140.684V140.683Z" fill="currentColor"/>
<path id="Vector_26" d="M138.782 159.241C139.626 160.231 139.705 160.728 138.996 161.804C136.712 165.275 133.588 168.198 129.963 170.258C129.343 170.61 128.686 170.943 127.974 170.994C126.63 171.088 125.448 170.174 124.447 169.279C119.982 165.29 116.131 160.681 112.298 156.09C111.574 155.223 110.833 154.324 110.508 153.245C109.907 151.246 110.891 149.071 112.332 147.551C113.774 146.032 115.634 144.983 117.3 143.71C118.921 142.471 121.393 141.532 123.242 143.027C125.048 144.487 126.724 146.41 128.39 148.055C132.013 151.634 135.482 155.367 138.783 159.241H138.782Z" fill="#5FE9D0"/>
<path id="Vector_27" d="M133.463 154.2C124.787 145.024 123.324 142.547 120.465 142.525C120.023 142.521 120.024 141.858 120.468 141.858H120.471C122.714 141.876 124.436 143.526 126.008 145.214L133.956 153.747C134.26 154.073 133.764 154.523 133.463 154.2H133.463Z" fill="currentColor"/>
<path id="Vector_28" d="M4.52658 115.64C5.30585 112.03 5.47501 101.708 11.2314 102.439C13.0942 102.676 14.6608 103.894 16.0918 105.1C20.7731 109.044 24.7304 113.802 28.0287 118.929C29.7251 121.566 31.2496 124.312 32.6005 127.139C33.6479 129.33 35.5861 132.27 34.6898 134.785C33.7726 137.358 27.5208 136.009 25.4207 135.908C15.636 135.441 4.57548 140.149 1.14331 137.737C-1.12236 136.144 1.24513 130.843 1.6977 128.745C2.64053 124.377 3.58335 120.008 4.52658 115.639V115.64Z" fill="#F6D356"/>
<path id="Vector_29" d="M16.5507 126.248C16.7102 126.008 16.6052 126.309 17.0325 121.8C17.235 119.615 17.4414 117.428 17.6443 115.243C17.7721 113.851 16.5587 112.712 15.1629 112.91C14.8302 112.956 14.4963 113.005 14.1636 113.051C12.9638 113.22 12.0947 114.327 12.3116 115.507C12.8459 118.429 13.7603 121.359 14.3147 124.329C14.4622 125.132 14.384 126.33 15.4195 126.533C15.6664 126.582 16.3491 126.535 16.5503 126.248" fill="currentColor"/>
<path id="Vector_30" d="M17.3576 131.995C16.802 132.985 15.6111 133.381 14.7027 132.877C13.7932 132.376 13.5097 131.164 14.0657 130.174C14.6213 129.183 15.8099 128.786 16.7206 129.291C17.629 129.795 17.9136 131.005 17.3576 131.995Z" fill="currentColor"/>
<path id="Vector_31" d="M99.3456 69.9334C98.8987 69.9207 98.9159 69.2395 99.3641 69.2669C111.835 69.603 124.399 68.7436 136.702 66.7266C137.152 66.6669 137.243 67.3148 136.812 67.3855C124.469 69.4073 111.82 70.2679 99.3456 69.9338V69.9334Z" fill="currentColor"/>
<path id="Vector_32" d="M115.386 80.16C112.801 80.16 110.22 79.9465 107.694 79.5154C107.241 79.4382 107.39 78.7662 107.807 78.8592C113.575 79.8395 119.638 79.682 125.342 78.3971C125.521 78.3605 125.705 78.4699 125.745 78.6484C125.786 78.8282 125.673 79.0064 125.492 79.0481C122.2 79.7878 118.79 80.16 115.386 80.16Z" fill="currentColor"/>
<path id="Vector_33" d="M151.431 25.8043C152.809 22.467 153.777 18.9671 154.31 15.4024C154.378 14.9585 155.04 15.0707 154.975 15.5014C154.434 19.1186 153.451 22.6706 152.053 26.0572C151.883 26.4649 151.264 26.2131 151.431 25.8047L151.431 25.8043Z" fill="currentColor"/>
<path id="Vector_34" d="M154.54 28.631L162.673 22.7338C163.026 22.4718 163.431 23.0086 163.07 23.2731L154.936 29.1702C154.579 29.4299 154.18 28.8942 154.54 28.631Z" fill="currentColor"/>
<path id="Vector_35" d="M147.357 25.3406C146.61 25.3406 147.397 23.8433 145.619 18.4906C145.561 18.3161 145.657 18.1272 145.833 18.0699C146.002 18.0115 146.199 18.1065 146.257 18.2823C146.978 20.45 147.46 22.7016 147.692 24.9735C147.71 25.1573 147.575 25.3211 147.391 25.3394C147.379 25.3406 147.367 25.3406 147.357 25.3406H147.357Z" fill="currentColor"/>
<path id="Vector_36" d="M26.6729 146.349C26.4937 145.943 27.111 145.678 27.287 146.081C35.6734 165.036 52.9959 170.011 64.592 162.83C56.6878 160.858 57.5276 154.166 64.4857 150.884C72.7844 146.964 75.1066 155.947 66.276 162.491C66.6007 162.485 83.9047 166.117 101.258 155.923C101.622 155.693 101.992 156.266 101.599 156.496C90.2699 163.153 76.2663 165.154 65.5067 163.032C53.6585 170.936 35.3744 166.023 26.6729 146.349ZM64.7744 151.485C58.2708 154.555 57.358 160.619 65.3688 162.322C73.8543 156.466 72.6565 147.762 64.7744 151.485Z" fill="currentColor"/>
<path id="Vector_37" d="M99.4832 25.2782C99.47 25.2114 94.43 25.8647 93.973 25.9316C92.4273 26.1447 90.7741 26.5849 89.2288 26.198C89.1887 26.1849 89.1482 26.1714 89.1077 26.1582C88.6508 26.025 88.2744 25.7315 87.9252 25.4114C84.7131 22.4646 83.8396 17.8647 85.3044 13.9317L91.8228 11.9449C89.2092 17.689 93.7774 25.6882 99.47 25.1446C99.47 25.1847 99.4832 25.238 99.4832 25.2778V25.2782Z" fill="currentColor"/>
<path id="Vector_38" d="M91.5166 11.8085C91.6922 11.4041 92.3111 11.6781 92.1284 12.0821C89.433 18.0131 94.6498 26.3233 100.476 24.6133C102.002 24.1277 103.216 22.9232 103.888 21.2239C105.543 17.1931 103.652 11.7032 99.8958 9.59509C99.513 9.37876 99.8325 8.80014 100.227 9.01449C102.222 10.1343 103.825 12.1995 104.629 14.6837C106.412 20.209 103.558 25.1887 99.4958 25.4778C93.5987 26.0628 88.7772 17.8293 91.517 11.8089L91.5166 11.8085Z" fill="currentColor"/>
<path id="Vector_39" d="M91.6425 12.3486C85.2784 14.2372 85.3594 14.3775 85.1049 14.2093C84.6992 13.9405 83.1398 12.8871 82.8015 12.5335C81.7396 11.4463 83.2705 9.9542 83.7047 9.46188C84.4903 8.56314 85.3947 7.93919 86.3271 7.28621C88.2665 5.95519 90.0006 4.89062 93.08 4.46709C95.7529 4.10163 97.8174 4.53947 98.2631 4.58162C98.9205 4.69735 99.5992 4.81585 99.9656 5.62194C100.263 6.28645 100.221 6.8595 100.275 7.51765C101.545 22.2296 96.0568 21.4068 91.6433 12.3482L91.6425 12.3486ZM92.1284 11.8058C93.1433 14.0212 96.1811 19.3131 98.2379 17.9868C100.382 16.595 99.7022 9.34139 99.578 7.14185C99.4914 5.49429 99.0961 5.406 98.1461 5.23818C97.2626 5.15427 95.688 4.77768 93.1718 5.12882C89.9637 5.56706 88.4681 6.69725 86.558 7.93998C84.4559 9.41297 84.2635 9.88024 84.0578 10.0755C82.654 11.6666 82.9338 11.9175 84.0682 12.6823C84.5 12.9881 84.9149 13.28 85.3494 13.5703L91.7243 11.6264C91.9011 11.5771 92.0626 11.6642 92.1284 11.8062V11.8058Z" fill="currentColor"/>
<path id="Vector_40" d="M90.3383 7.86562C89.9018 7.78171 90.0269 7.13271 90.4642 7.20946C90.8871 7.30052 91.3224 6.96091 91.3253 6.50756C91.3265 6.32384 91.4776 6.1767 91.6612 6.1767H91.664C91.8504 6.17789 91.9987 6.32901 91.9975 6.51273C91.9891 7.37767 91.193 8.02469 90.3383 7.86562Z" fill="currentColor"/>
<path id="Vector_41" d="M90.8514 7.57169C89.9262 6.47928 89.3589 5.17451 88.813 3.82162C88.3997 2.79283 88.0425 1.78393 88.2317 0.739641C88.3716 -0.0103726 89.0411 -0.311015 89.6624 0.41673C90.8045 1.75013 91.7321 3.24618 92.4175 4.86313C92.4897 5.03254 92.4095 5.22779 92.2375 5.29938C92.0696 5.37493 91.8687 5.29023 91.7978 5.12082C90.8638 2.9189 89.2162 0.777818 88.9485 0.671639C88.9561 0.805258 88.4971 1.23872 89.4379 3.57387C89.9614 4.87347 90.5038 6.12455 91.3661 7.1414C91.6519 7.47823 91.14 7.90772 90.8518 7.57089L90.8514 7.57169Z" fill="currentColor"/>
</g>
</g>
<defs>
<clipPath id="clip0_2711_17833">
<rect width="167" height="171" fill="white" transform="translate(0.176758)"/>
</clipPath>
</defs>
</svg>
