<svg width="21" height="21" viewBox="0 0 21 21" fill="none" xmlns="http://www.w3.org/2000/svg">
<g clip-path="url(#clip0_27328_36165)">
<path d="M10.8933 7.08557V10.4189M10.8933 13.7522H10.9016M2.55994 7.52119V13.3166C2.55994 13.5204 2.55994 13.6224 2.58296 13.7183C2.60338 13.8033 2.63705 13.8846 2.68274 13.9591C2.73427 14.0432 2.80633 14.1153 2.95046 14.2594L7.05275 18.3617C7.19687 18.5058 7.26894 18.5779 7.35303 18.6294C7.42759 18.6751 7.50888 18.7088 7.59391 18.7292C7.68982 18.7522 7.79173 18.7522 7.99555 18.7522H13.791C13.9948 18.7522 14.0967 18.7522 14.1926 18.7292C14.2777 18.7088 14.3589 18.6751 14.4335 18.6294C14.5176 18.5779 14.5897 18.5058 14.7338 18.3617L18.8361 14.2594C18.9802 14.1153 19.0523 14.0432 19.1038 13.9591C19.1495 13.8846 19.1832 13.8033 19.2036 13.7183C19.2266 13.6224 19.2266 13.5204 19.2266 13.3166V7.52119C19.2266 7.31736 19.2266 7.21545 19.2036 7.11954C19.1832 7.03451 19.1495 6.95323 19.1038 6.87867C19.0523 6.79457 18.9802 6.72251 18.8361 6.57838L14.7338 2.4761C14.5897 2.33197 14.5176 2.25991 14.4335 2.20837C14.3589 2.16268 14.2777 2.12901 14.1926 2.1086C14.0967 2.08557 13.9948 2.08557 13.791 2.08557H7.99555C7.79173 2.08557 7.68982 2.08557 7.59391 2.1086C7.50888 2.12901 7.42759 2.16268 7.35303 2.20837C7.26894 2.25991 7.19687 2.33197 7.05275 2.4761L2.95046 6.57838C2.80633 6.72251 2.73427 6.79457 2.68274 6.87867C2.63705 6.95323 2.60338 7.03451 2.58296 7.11954C2.55994 7.21545 2.55994 7.31736 2.55994 7.52119Z" stroke="currentColor" stroke-width="1.66667" stroke-linecap="round" stroke-linejoin="round"/>
</g>
<defs>
<clipPath id="clip0_27328_36165">
<rect width="20" height="20" fill="white" transform="translate(0.893311 0.418945)"/>
</clipPath>
</defs>
</svg>
